<?xml version="1.0" encoding="UTF-8"?>
<svg xmlns="http://www.w3.org/2000/svg" viewBox="0 0 200 200">
  <g fill="#0ea47a">
    <path d="M125.885 102.207a43.74 42.87.9 0 1-44.408 42.178 43.74 42.87.9 0 1-43.062-43.552 43.74 42.87.9 0 1 44.408-42.178 43.74 42.87.9 0 1 43.062 43.552m-5.667-.308A38.07 37.22.6 0 0 82.54 64.282a38.07 37.22.6 0 0-38.458 36.82 38.07 37.22.6 0 0 37.678 37.616 38.07 37.22.6 0 0 38.458-36.82"/>
    <path d="M115.69 101.284a33.56 32.82-.3 0 1-33.388 32.996 33.56 32.82-.3 0 1-33.732-32.644A33.56 32.82-.3 0 1 81.959 68.64a33.56 32.82-.3 0 1 33.732 32.644m-5.42-.01A28.14 27.42-.4 0 0 81.938 74.05a28.14 27.42-.4 0 0-27.948 27.615 28.14 27.42-.4 0 0 28.33 27.223 28.14 27.42-.4 0 0 27.948-27.616"/>
    <path d="M104.89 101.39a22.8 22.25-.2 0 1-22.722 22.33 22.8 22.25-.2 0 1-22.878-22.17 22.8 22.25-.2 0 1 22.722-22.33 22.8 22.25-.2 0 1 22.878 22.17m-5.41-.499A17.46 16.94-1.9 0 0 81.468 84.54a17.46 16.94-1.9 0 0-16.888 17.51A17.46 16.94-1.9 0 0 82.592 118.4a17.46 16.94-1.9 0 0 16.888-17.51"/>
    <path d="M93.69 102.31a11.74 11.51 4.1 0 1-12.533 10.64 11.74 11.51 4.1 0 1-10.887-12.32 11.74 11.51 4.1 0 1 12.533-10.64 11.74 11.51 4.1 0 1 10.887 12.32m-5.16-.82a6.58 6.58 0 0 0-6.58-6.58 6.58 6.58 0 0 0-6.58 6.58 6.58 6.58 0 0 0 6.58 6.58 6.58 6.58 0 0 0 6.58-6.58"/>
  </g>
</svg> 